<svg xmlns="http://www.w3.org/2000/svg" width="17" height="17" viewBox="0 0 17 17">
  <g id="_language" data-name=" language" transform="translate(-644 -330)">
    <rect id="Path" width="17" height="17" transform="translate(644 330)" fill="rgba(0,0,0,0)"/>
    <path id="Icon" d="M6.5,13A6.5,6.5,0,1,1,13,6.5,6.507,6.507,0,0,1,6.5,13ZM5.265,9.1h0a9.139,9.139,0,0,0,1.241,2.574A9.156,9.156,0,0,0,7.748,9.1H5.265Zm3.822,0h0a10.2,10.2,0,0,1-.9,2.314A5.215,5.215,0,0,0,11,9.1Zm-7.078,0a5.2,5.2,0,0,0,2.814,2.314,10.146,10.146,0,0,1-.9-2.314ZM4.985,5.2a9.319,9.319,0,0,0-.1,1.3,9.606,9.606,0,0,0,.1,1.3H8.027a9.566,9.566,0,0,0,.1-1.3,9.306,9.306,0,0,0-.1-1.3Zm4.355,0h0a10.852,10.852,0,0,1,.091,1.3A10.853,10.853,0,0,1,9.34,7.8h2.2a5.374,5.374,0,0,0,.169-1.3,5.372,5.372,0,0,0-.169-1.3Zm-7.865,0h0a5.372,5.372,0,0,0-.169,1.3,5.373,5.373,0,0,0,.169,1.3h2.2a10.586,10.586,0,0,1-.091-1.3,10.573,10.573,0,0,1,.091-1.3h-2.2ZM8.19,1.586a10.2,10.2,0,0,1,.9,2.314H11A5.216,5.216,0,0,0,8.19,1.586Zm-1.684-.26A9.137,9.137,0,0,0,5.265,3.9H7.748A9.156,9.156,0,0,0,6.506,1.326Zm-1.684.26A5.2,5.2,0,0,0,2.008,3.9H3.926a10.142,10.142,0,0,1,.9-2.314Z" transform="translate(645.99 332)" fill="#879592"/>
  </g>
</svg>
